<svg aria-hidden="true" style="position:absolute;width:0;height:0;overflow:hidden" xmlns="http://www.w3.org/2000/svg"><defs>
<symbol id="icon-arrow-down" viewBox="0 0 32 32"><path fill="none" stroke="#fff" style="stroke:var(--color1, #fff)" stroke-miterlimit="10" stroke-width="1.684" d="M16 0v29.642M5.053 19.537l10.948 10.779 10.946-10.779"/></symbol>
<symbol id="icon-arrow-left" viewBox="0 0 32 32"><path fill="none" stroke="#0061d9" style="stroke:var(--color2, #0061d9)" stroke-miterlimit="10" stroke-width="4.571" d="M24 29.714 10.286 16.003 24 2.285"/></symbol>
<symbol id="icon-arrow-right" viewBox="0 0 32 32"><path fill="none" stroke="#0061d9" style="stroke:var(--color2, #0061d9)" stroke-miterlimit="10" stroke-width="4.571" d="m8.504 2.286 13.714 13.711L8.504 29.715"/></symbol>
<symbol id="icon-directions-eight" viewBox="0 0 32 32"><path fill="none" stroke="#70cf29" style="stroke:var(--color3, #70cf29)" stroke-miterlimit="10" stroke-width=".372" d="M26.18 4.148A15.558 15.558 0 0 0 16 .372C7.369.372.372 7.369.372 16c0 3.89 1.424 7.446 3.776 10.18"/><path fill="none" stroke="#3fa9f5" style="stroke:var(--color4, #3fa9f5)" stroke-miterlimit="10" stroke-width=".372" d="M5.72 27.766A15.562 15.562 0 0 0 16 31.628c8.631 0 15.628-6.997 15.628-15.628 0-3.937-1.459-7.532-3.862-10.28"/><path fill="#3fa9f5" style="fill:var(--color4, #3fa9f5)" d="M14.838 14.54c1.901 0 3.448-1.546 3.448-3.447s-1.546-3.447-3.448-3.447c-1.901 0-3.448 1.546-3.448 3.447s1.547 3.447 3.448 3.447zm0-6.15c1.491 0 2.704 1.213 2.704 2.703s-1.213 2.703-2.704 2.703-2.704-1.213-2.704-2.703a2.707 2.707 0 0 1 2.704-2.703zM16 21.581H9.686c.179-2.765 2.347-4.879 5.082-4.879 1.011 0 1.822.201 2.551.631l.378-.641c-.849-.501-1.779-.734-2.929-.734-3.274 0-5.838 2.634-5.838 5.996v.372H16v-.744zM25.201 24.565l-2.151-2.63c.248-.434.391-.935.391-1.469 0-1.641-1.335-2.977-2.977-2.977s-2.977 1.335-2.977 2.977c0 .535.144 1.036.391 1.469l-2.151 2.63c-.092.112-.11.267-.047.397s.184.211.34.21l1.458-.021.518 1.353a.372.372 0 0 0 .324.238l.023.001a.375.375 0 0 0 .329-.197l1.654-3.11c.045.002.09.007.137.007s.091-.005.137-.007l1.654 3.11a.373.373 0 0 0 .329.197l.023-.001a.372.372 0 0 0 .324-.238l.518-1.353 1.458.021c.158.003.278-.08.34-.21s.044-.285-.048-.397zm-6.8.91-.319-.832a.35.35 0 0 0-.353-.239l-.918.013 1.53-1.87c.334.342.751.603 1.217.753l-1.157 2.175zm-.168-5.01c0-1.231 1.001-2.233 2.233-2.233s2.233 1.001 2.233 2.233c0 1.231-1.001 2.233-2.233 2.233s-2.233-1.001-2.233-2.233zm4.968 3.938a.37.37 0 0 0-.353.239l-.319.832-1.156-2.175c.466-.15.882-.411 1.217-.753l1.53 1.87-.919-.013z"/></symbol>
<symbol id="icon-directions-five" viewBox="0 0 32 32"><path fill="none" stroke="#70cf29" style="stroke:var(--color3, #70cf29)" stroke-miterlimit="10" stroke-width=".372" d="M26.18 4.148A15.558 15.558 0 0 0 16 .372C7.369.372.372 7.369.372 16c0 3.89 1.424 7.446 3.776 10.18"/><path fill="none" stroke="#3fa9f5" style="stroke:var(--color4, #3fa9f5)" stroke-miterlimit="10" stroke-width=".372" d="M5.72 27.766A15.562 15.562 0 0 0 16 31.628c8.631 0 15.628-6.997 15.628-15.628 0-3.937-1.459-7.532-3.862-10.28"/><path fill="#3fa9f5" style="fill:var(--color4, #3fa9f5)" d="M19.642 16.098c.395.303.843.646 1.567.646.642 0 1.088-.329 1.483-.618.364-.267.678-.498 1.122-.498.434 0 .733.224 1.079.484.396.297.844.633 1.526.633v-.744c-.434 0-.733-.224-1.079-.484-.396-.297-.844-.633-1.526-.633-.688 0-1.153.341-1.562.643-.346.254-.645.474-1.042.474-.471 0-.769-.228-1.114-.493-.306-.234-.647-.491-1.118-.585v-2.309a1.863 1.863 0 0 0 1.488-1.822c0-1.026-.835-1.86-1.86-1.86s-1.86.835-1.86 1.86c0 .898.64 1.65 1.488 1.822v2.309c-.481.094-.835.355-1.154.594-.346.259-.645.484-1.079.484s-.733-.224-1.079-.484c-.396-.297-.844-.633-1.526-.633s-1.131.336-1.526.633c-.346.259-.646.484-1.079.484-.437 0-.741-.226-1.092-.488-.396-.295-.845-.628-1.516-.628-.696 0-1.149.34-1.544.64-.337.255-.684.476-1.056.476v.744c.744 0 1.119-.333 1.506-.628.346-.262.653-.489 1.098-.489.424 0 .723.223 1.069.481.399.298.852.635 1.535.635.682 0 1.13-.336 1.526-.633.346-.259.645-.484 1.079-.484s.733.224 1.079.484c.396.297.844.633 1.526.633s1.13-.336 1.526-.633c.237-.178.455-.333.707-.418v1.833c-.481.094-.835.355-1.154.594-.346.259-.645.484-1.079.484s-.733-.224-1.079-.484c-.396-.297-.844-.633-1.526-.633s-1.131.336-1.526.633c-.346.259-.646.484-1.079.484-.437 0-.741-.226-1.092-.488-.396-.295-.845-.628-1.516-.628-.696 0-1.149.34-1.544.64-.337.255-.684.476-1.056.476v.744c.744 0 1.119-.333 1.506-.628.346-.262.653-.489 1.098-.489.424 0 .723.223 1.069.481.399.298.852.635 1.535.635.682 0 1.13-.336 1.526-.633.346-.259.645-.484 1.079-.484s.733.224 1.079.484c.396.297.844.633 1.526.633s1.13-.336 1.526-.633c.237-.178.455-.333.707-.418v4.771c0 1.436-1.168 2.605-2.605 2.605s-2.605-1.169-2.605-2.605v-.962l1.597 1.597.526-.526-2.868-2.868v2.759c0 1.847 1.502 3.349 3.349 3.349s3.349-1.502 3.349-3.349v-4.77c.234.08.435.226.666.403.395.303.843.646 1.567.646.642 0 1.088-.329 1.483-.618.364-.267.678-.498 1.122-.498.434 0 .733.224 1.079.484.396.297.844.633 1.526.633v-.744c-.434 0-.733-.224-1.079-.484-.396-.297-.844-.633-1.526-.633-.688 0-1.153.341-1.562.643-.346.254-.645.474-1.042.474-.471 0-.769-.228-1.114-.493-.306-.234-.647-.491-1.118-.585v-1.832c.234.08.435.226.666.403zm-2.154-5.307c0-.615.501-1.116 1.116-1.116s1.116.501 1.116 1.116c0 .615-.501 1.116-1.116 1.116s-1.116-.501-1.116-1.116zM18.977 5.954h-.744v2.977h.744V5.954z"/></symbol>
<symbol id="icon-directions-four" viewBox="0 0 32 32"><path fill="none" stroke="#70cf29" style="stroke:var(--color3, #70cf29)" stroke-miterlimit="10" stroke-width=".372" d="M26.18 4.148A15.564 15.564 0 0 0 16 .372C7.369.372.372 7.369.372 16c0 3.89 1.424 7.445 3.776 10.18"/><path fill="none" stroke="#3fa9f5" style="stroke:var(--color4, #3fa9f5)" stroke-miterlimit="10" stroke-width=".372" d="M5.72 27.766A15.562 15.562 0 0 0 16 31.628c8.631 0 15.628-6.997 15.628-15.628a15.56 15.56 0 0 0-3.862-10.279"/><path fill="#3fa9f5" style="fill:var(--color4, #3fa9f5)" d="m24.34 15.256-1.86-1.86h-1.116l-1.86-1.86h-6.108V7.443h-2.233v4.093H8.93v1.86H7.814v1.86H5.828l2.08 7.07h15.783l2.911-7.07H24.34zm-12.433-7.07h.744v3.349h-.744V8.186zm-2.233 4.093h9.52l1.116 1.116H9.673v-1.116zM8.558 14.14h13.613l1.116 1.116H8.557V14.14zm14.635 7.441H8.465L6.824 16h18.668l-2.298 5.581z"/><path fill="#3fa9f5" style="fill:var(--color4, #3fa9f5)" d="M11.163 17.302c-.821 0-1.488.668-1.488 1.488s.668 1.488 1.488 1.488c.821 0 1.488-.668 1.488-1.488s-.668-1.488-1.488-1.488zm0 2.233a.745.745 0 0 1 0-1.488.745.745 0 0 1 0 1.488zM16 17.302c-.821 0-1.488.668-1.488 1.488s.668 1.488 1.488 1.488c.821 0 1.488-.668 1.488-1.488S16.82 17.302 16 17.302zm0 2.233a.745.745 0 0 1 0-1.488.745.745 0 0 1 0 1.488zM20.837 17.302c-.821 0-1.488.668-1.488 1.488s.668 1.488 1.488 1.488c.821 0 1.488-.668 1.488-1.488s-.668-1.488-1.488-1.488zm0 2.233a.745.745 0 0 1 0-1.488.745.745 0 0 1 0 1.488z"/></symbol>
<symbol id="icon-directions-one" viewBox="0 0 32 32"><path fill="none" stroke="#70cf29" style="stroke:var(--color3, #70cf29)" stroke-miterlimit="10" stroke-width=".372" d="M26.18 4.148A15.564 15.564 0 0 0 16 .372C7.369.372.372 7.369.372 16c0 3.89 1.424 7.445 3.776 10.18"/><path fill="none" stroke="#3fa9f5" style="stroke:var(--color4, #3fa9f5)" stroke-miterlimit="10" stroke-width=".372" d="M5.72 27.766A15.562 15.562 0 0 0 16 31.628c8.631 0 15.628-6.997 15.628-15.628a15.56 15.56 0 0 0-3.862-10.279"/><path fill="#3fa9f5" style="fill:var(--color4, #3fa9f5)" d="M19.328 14.945c1.828 0 3.314-1.487 3.314-3.314s-1.487-3.315-3.314-3.315c-1.828 0-3.315 1.487-3.315 3.315s1.487 3.314 3.315 3.314zm0-5.885c1.417 0 2.57 1.153 2.57 2.57s-1.153 2.57-2.57 2.57c-1.418 0-2.571-1.153-2.571-2.57s1.154-2.57 2.571-2.57zM19.349 16.285c-3.126 0-5.582 2.543-5.582 5.668v.372H24.93v-.372c0-3.126-2.455-5.668-5.581-5.668zm-4.931 5.296c.191-2.543 2.32-4.552 4.911-4.552s4.72 2.01 4.91 4.552h-9.821zM11.275 16.41c1.493 0 2.708-1.215 2.708-2.708s-1.215-2.708-2.708-2.708c-1.494 0-2.709 1.215-2.709 2.708s1.215 2.708 2.709 2.708zm0-4.672c1.083 0 1.964.881 1.964 1.964s-.881 1.964-1.964 1.964c-1.084 0-1.965-.881-1.965-1.964s.881-1.964 1.965-1.964zM6.698 21.954v.372h5.581v-.744H7.458c.178-2.006 1.78-3.528 3.795-3.528.761 0 1.39.153 1.923.467l.378-.641c-.65-.384-1.403-.57-2.301-.57-2.555 0-4.556 2.04-4.556 4.644z"/></symbol>
<symbol id="icon-directions-seven" viewBox="0 0 32 32"><path fill="#3fa9f5" style="fill:var(--color4, #3fa9f5)" d="M22.326 11.535h-3.349v-.744c0-1.026-.835-1.86-1.86-1.86h-2.233c-1.026 0-1.86.835-1.86 1.86v.744H9.675c-1.026 0-1.86.835-1.86 1.86v7.07c0 1.026.835 1.86 1.86 1.86h12.651c1.026 0 1.86-.835 1.86-1.86v-7.07c0-1.026-.835-1.86-1.86-1.86zm-8.559-.744c0-.615.501-1.116 1.116-1.116h2.233c.615 0 1.116.501 1.116 1.116v.744h-4.465v-.744zm9.675 9.674c0 .615-.501 1.116-1.116 1.116H9.675a1.118 1.118 0 0 1-1.116-1.116v-7.07c0-.615.501-1.116 1.116-1.116h12.651c.615 0 1.116.501 1.116 1.116v7.07z"/><path fill="none" stroke="#70cf29" style="stroke:var(--color3, #70cf29)" stroke-miterlimit="10" stroke-width=".372" d="M26.18 4.148A15.558 15.558 0 0 0 16 .372C7.369.372.372 7.369.372 16c0 3.89 1.424 7.446 3.776 10.18"/><path fill="none" stroke="#3fa9f5" style="stroke:var(--color4, #3fa9f5)" stroke-miterlimit="10" stroke-width=".372" d="M5.72 27.766A15.562 15.562 0 0 0 16 31.628c8.631 0 15.628-6.997 15.628-15.628 0-3.937-1.459-7.532-3.862-10.28"/><path fill="#3fa9f5" style="fill:var(--color4, #3fa9f5)" d="M13.023 17.488h-.744v2.977h.744v-2.977zM15.256 16.372h-.744v4.093h.744v-4.093zM17.488 15.256h-.744v5.209h.744v-5.209zM19.721 14.14h-.744v6.326h.744V14.14z"/></symbol>
<symbol id="icon-directions-six" viewBox="0 0 32 32"><path fill="none" stroke="#70cf29" style="stroke:var(--color3, #70cf29)" stroke-miterlimit="10" stroke-width=".372" d="M26.18 4.148A15.558 15.558 0 0 0 16 .372C7.369.372.372 7.369.372 16c0 3.89 1.424 7.446 3.776 10.18"/><path fill="none" stroke="#3fa9f5" style="stroke:var(--color4, #3fa9f5)" stroke-miterlimit="10" stroke-width=".372" d="M5.72 27.766A15.562 15.562 0 0 0 16 31.628c8.631 0 15.628-6.997 15.628-15.628 0-3.937-1.459-7.532-3.862-10.28"/><path fill="#3fa9f5" style="fill:var(--color4, #3fa9f5)" d="M23.814 10.046a2.608 2.608 0 0 0-2.605-2.605H10.418a2.608 2.608 0 0 0-2.605 2.605v12.651h2.233v1.488h.744v-1.488h10.046v1.488h.744v-1.488h2.233V10.046zm-5.801 6.326c-.178-1.054-1.095-1.86-2.199-1.86s-2.021.806-2.199 1.86H8.558v-5.954H23.07v5.954h-5.057zm-.763 0h-2.871c.166-.64.744-1.116 1.436-1.116s1.269.476 1.436 1.116zm-6.831-8.186H21.21c.899 0 1.65.64 1.823 1.488H8.597a1.863 1.863 0 0 1 1.823-1.488zM8.558 21.953v-4.837H23.07v4.837H8.558z"/><path fill="#3fa9f5" style="fill:var(--color4, #3fa9f5)" d="M11.349 17.86c-.923 0-1.674.751-1.674 1.674s.751 1.674 1.674 1.674c.923 0 1.674-.751 1.674-1.674s-.751-1.674-1.674-1.674zm0 2.605a.93.93 0 1 1 .002-1.862.93.93 0 0 1-.002 1.862zM20.279 17.86c-.923 0-1.674.751-1.674 1.674s.751 1.674 1.674 1.674c.923 0 1.674-.751 1.674-1.674s-.751-1.674-1.674-1.674zm0 2.605a.93.93 0 1 1 .002-1.862.93.93 0 0 1-.002 1.862z"/></symbol>
<symbol id="icon-directions-three" viewBox="0 0 32 32"><path fill="none" stroke="#70cf29" style="stroke:var(--color3, #70cf29)" stroke-miterlimit="10" stroke-width=".372" d="M26.18 4.148A15.564 15.564 0 0 0 16 .372C7.369.372.372 7.369.372 16c0 3.89 1.424 7.445 3.776 10.18"/><path fill="none" stroke="#3fa9f5" style="stroke:var(--color4, #3fa9f5)" stroke-miterlimit="10" stroke-width=".372" d="M5.72 27.766A15.562 15.562 0 0 0 16 31.628c8.631 0 15.628-6.997 15.628-15.628a15.56 15.56 0 0 0-3.862-10.279"/><path fill="#3fa9f5" style="fill:var(--color4, #3fa9f5)" d="M23.245 8.93H9.127c-.898 0-1.685.859-1.685 1.838v9.193c0 .908.74 1.62 1.685 1.62h.919v3.826l4.151-3.826h9.047c.945 0 1.685-.711 1.685-1.62v-9.193c0-.979-.787-1.838-1.685-1.838zm.941 11.032c0 .499-.404.876-.941.876h-9.338l-3.116 2.872v-2.872H9.127c-.537 0-.941-.377-.941-.876v-9.193c0-.552.466-1.094.941-1.094h14.118c.475 0 .941.542.941 1.094v9.193z"/><path fill="#3fa9f5" style="fill:var(--color4, #3fa9f5)" d="M15.963 11.303c-2.229 0-4.043 1.807-4.043 4.029s1.814 4.029 4.043 4.029 4.042-1.807 4.042-4.029-1.813-4.029-4.042-4.029zm3.264 3.581h-1.545c-.045-.991-.237-1.951-.568-2.627a3.293 3.293 0 0 1 2.113 2.627zm-3.264 3.677c-.314 0-.911-1.034-.979-2.933h1.957c-.068 1.9-.665 2.933-.978 2.933zm-.975-3.677c.086-1.835.667-2.831.975-2.831s.889.996.974 2.831h-1.949zm-.175-2.627c-.331.675-.523 1.635-.569 2.627h-1.545a3.292 3.292 0 0 1 2.114-2.627zm-2.134 3.371h1.561c.038 1.059.243 2.089.605 2.79a3.293 3.293 0 0 1-2.166-2.79zm4.401 2.79c.362-.7.567-1.731.605-2.79h1.561a3.289 3.289 0 0 1-2.166 2.79z"/></symbol>
<symbol id="icon-directions-two" viewBox="0 0 32 32"><path fill="none" stroke="#70cf29" style="stroke:var(--color3, #70cf29)" stroke-miterlimit="10" stroke-width=".372" d="M26.18 4.148A15.564 15.564 0 0 0 16 .372C7.369.372.372 7.369.372 16c0 3.89 1.424 7.445 3.776 10.18"/><path fill="none" stroke="#3fa9f5" style="stroke:var(--color4, #3fa9f5)" stroke-miterlimit="10" stroke-width=".372" d="M5.72 27.766A15.562 15.562 0 0 0 16 31.628c8.631 0 15.628-6.997 15.628-15.628a15.56 15.56 0 0 0-3.862-10.279"/><path fill="#3fa9f5" style="fill:var(--color4, #3fa9f5)" d="M16.372 14.14h4.458l3.261-2.893-3.268-2.688h-4.45V7.443h-.744v1.116H9.303v5.581h6.326V16h-3.773l-3.261 2.886 3.268 2.696h3.766v2.605h-3.721v.744h8.558v-.744h-4.093v-2.605h6.698v-5.581h-6.698v-1.86zm-6.325-4.838h10.509l2.39 1.965-2.398 2.128H10.047V9.302zm12.279 7.442v4.093H12.13l-2.39-1.972 2.397-2.121h10.189z"/></symbol>
<symbol id="icon-envelope" viewBox="0 0 32 32"><path fill="#fff" style="fill:var(--color1, #fff)" opacity=".8" d="M16 0C7.161 0 0 7.164 0 16c0 8.839 7.161 16 16 16 8.835 0 16-7.161 16-16 0-8.836-7.165-16-16-16zm9.569 9.371.023.004-8.929 8.931a.814.814 0 0 1-1.121-.003L6.609 9.371H25.57zm-19.584.598c0-.007.004-.011.004-.011l6.068 6.065-6.072 6.072V9.968zm.598 12.828c-.027 0-.052-.013-.079-.017l6.155-6.153 2.279 2.279c.308.311.724.48 1.165.48.437 0 .853-.169 1.161-.48l2.204-2.205 6.096 6.097H6.583zm19.585-.602-6.096-6.096 6.096-6.096v12.192z"/></symbol>
<symbol id="icon-footer-logo" viewBox="0 0 32 32"><path fill="#fff" style="fill:var(--color1, #fff)" d="M28.176 22.603h.6v-2.005l1.838 1.796c.049.039.101.077.153.113.043.029.085.055.129.078.038.017.079.036.121.043a.647.647 0 0 0 .394-.042.6.6 0 0 0 .315-.373.92.92 0 0 0 .042-.274v-1.883h-.601v1.999l-1.842-1.813c-.143-.14-.318-.246-.525-.246a.582.582 0 0 0-.232.049.87.87 0 0 0-.202.13.662.662 0 0 0-.138.189.501.501 0 0 0-.053.227V22.6h.001zm-9.006-4.278h2.107v-3.778l6.95 3.478c.75.373 1.886.461 2.616 0 .714-.449.927-1.227.927-2.028V9.436H7.161c-.415 0-.824.063-1.218.187a3.472 3.472 0 0 0-1.067.543 2.847 2.847 0 0 0-.762.863 2.256 2.256 0 0 0-.292 1.146c0 .388.08.757.251 1.103.167.335.388.629.672.874.286.251.611.44.967.571.365.138.746.205 1.138.205h8.698v1.315H2.358V9.361H.001v8.967l14.717-.001a3.174 3.174 0 0 0 2.074-.77c.277-.24.499-.528.664-.857a2.38 2.38 0 0 0 .25-1.089c0-.381-.077-.743-.234-1.089a2.783 2.783 0 0 0-.634-.892 2.973 2.973 0 0 0-.956-.601 3.167 3.167 0 0 0-1.191-.222H6.118v-1.342h23.534v4.845l-7.024-3.498c-1.628-.81-3.457-.519-3.457 1.625v3.888zM3.022 22.021H.621v-1.378h2.401v1.378zm-3.01.582h2.762a.938.938 0 0 0 .607-.223.827.827 0 0 0 .192-.251.72.72 0 0 0 .071-.316v-.974a.746.746 0 0 0-.258-.57.908.908 0 0 0-.601-.222H.013v2.556h.001zm9.766.011v-.632h-3.01v-.35h3.01v-.613h-3.01v-.372h3.01v-.61H7.063c-.12 0-.241.017-.354.056a.898.898 0 0 0-.283.159.753.753 0 0 0-.259.596v.951c0 .114.021.227.071.328a.885.885 0 0 0 .198.257.892.892 0 0 0 .286.168.998.998 0 0 0 .335.061h2.722zm6.303-1.968v-.578H13.25a1.117 1.117 0 0 0-.651.207.826.826 0 0 0-.217.246.65.65 0 0 0-.083.327c0 .109.022.216.072.314a.855.855 0 0 0 .466.412.93.93 0 0 0 .325.059h2.482v.377h-3.179v.592h2.941c.11 0 .216-.019.317-.058a.867.867 0 0 0 .273-.162.785.785 0 0 0 .19-.243.735.735 0 0 0 .005-.621.807.807 0 0 0-.179-.255.872.872 0 0 0-.274-.169.869.869 0 0 0-.339-.063h-2.448v-.385l3.131.001zm3.371-.6h-.671v2.578h.671v-2.578zm4.404.963v.613h1.179v.36h-2.463v-1.34h3.082v-.597H22.9c-.235 0-.493.04-.686.186a.607.607 0 0 0-.24.51v1.048c0 .12.022.238.077.345a.786.786 0 0 0 .209.249c.09.069.191.121.299.154.113.037.232.054.353.054h1.765c.121 0 .24-.015.36-.047a.984.984 0 0 0 .31-.144.751.751 0 0 0 .218-.244.705.705 0 0 0 .081-.345v-.802l-1.789-.001z"/></symbol>
<symbol id="icon-logo" viewBox="0 0 32 32"><path fill="#3fa9f5" style="fill:var(--color4, #3fa9f5)" d="M14.877 18.041c.289.056.341-.085.388-.185s.185-.255.386-.35c.202-.096.473-.258.579-.354.107-.097.221-.217.464-.226s.364-.129.44-.285c.078-.156.024-.485.077-.601.053-.115.188-.32.267-.501.08-.18.011-.165-.108-.113-.119.051-.223.092-.269.252-.047.161-.09.197-.24.307-.151.109-.26.187-.421.239-.163.051-.479.15-.657.237a7.1 7.1 0 0 0-.534.292l-1.226 1.226c.229-.024.596.013.854.063z"/><path fill="#3fa9f5" style="fill:var(--color4, #3fa9f5)" d="M28.183 5.633c-.059.048-.103.092-.112.124-.031.111-.048.594-.161.801-.111.207-.149.605-.15.679a.66.66 0 0 1-.087.326c-.073.121-.223.298-.168.388s.269.251.156.367c-.114.116-.391.284-.311.455.083.172.212.487.206.615s-.084.254-.004.339c.081.086.148.261.031.449s-.694.999-1.049 1.296c-.353.297-.68.631-.781.823s-.112.339-.163.406c-.05.067-.196.17-.301.271-.104.101-.022.162.032.251s.009.232-.077.319-.318.211-.174.305.179.255.111.328c-.068.073-.217.271-.227.344-.011.073-.344.075-.503-.033-.158-.108-.418-.28-.362-.334s.205-.132.338-.299c.135-.167.118-.404.194-.431.079-.026.099-.171-.036-.264-.136-.093-.185-.186-.053-.341.133-.155.286-.454.057-.584s-.485-.067-.781.028c-.297.095-.246.164-.627.519-.383.354-.225.549-.458.802-.232.252-.212.378-.444.63-.231.252-.584.475-.697.67s.016.237.26.085c.244-.151.133-.155.496-.191.364-.036.367.026.616-.088.252-.113.386-.194.494-.08s.296.362.379.559c.084.197.107.472.039.796-.07.324-.028.478-.216.674-.188.196-.449.296-.699.41s-.169.063-.409.19c-.24.128-.289.034-.402-.129-.113-.164-.456-.1-.61.027-.152.127-.673.685-.848.784-.174.1-.652.244-.81.407s-.19.308-.082.409c.11.102.22.463-.057.597s-.44.236-.516.423c-.074.188-.422.387-.633.468-.209.083-.674.24-.842.465-.166.224-.293.416-.489.5-.196.085-.549.308-.762.328s-.383-.275-.849-.191c-.469.084-.954.202-1.064.286-.112.083-.233.251-.367.333-.135.08-.251.212-.631.27-.377.06-.491.081-.734.22-.241.139-.452.321-.66.403-.21.082-.438.038-.539.321-.1.283-.149.634-.34.767-.191.135-.231.24-.396.266-.163.028-.2-.595-.604-.528-.406.068-.539.136-.667.082-.129-.055-.187-.088-.376-.052-.19.036-.61-.048-.743.194-.132.241-.296.267-.433.644-.14.376-.16.435.038.523.198.089.187.174.077.258-.112.083-.383.256-.459.455s-.094.321-.202.478c-.108.158-.336.374-.233.437s.217.215.1.261c-.117.045-.363.123-.549.406-.188.283-.595.647-.773.857a1.545 1.545 0 0 1-.194.194A15.923 15.923 0 0 0 16.001 32c8.837 0 16-7.163 16-16 0-3.956-1.439-7.574-3.817-10.367z"/><path fill="#70cf29" style="fill:var(--color3, #70cf29)" d="M14.571 16.966c-.178-.025-.332.114-.402.179-.071.064-.115.021-.256-.023-.143-.044-.288.109-.328.226-.041.118-.249.101-.327.041s-.287.022-.41.105c-.123.082-.233.202-.362.333-.129.13.153.256.247.355.089.094.233.048.32.011s.266-.086.38-.129c.113-.042.292-.033.504-.078.023-.005.058-.005.086-.008l1.226-1.226c-.014.008-.027.015-.04.024-.209.125-.461.214-.636.19z"/><path fill="#70cf29" style="fill:var(--color3, #70cf29)" d="M3.664 25.559c.604-.197 1.138-.847 1.351-1.197.212-.349.752-1.048 1.094-1.496s1.225-1 1.967-1.244c.741-.243 1.575-.557 2.002-1.025.426-.468.396-.604.676-.73s.647-.272.734-.426c.086-.152.091-.662.521-.801s.415-.144.453-.324c.037-.18-.215-.314-.35-.333-.133-.018-.516.077-.462-.051.055-.128.312-.464.642-.615s.724-.419.822-.591c.098-.171.371-.455.7-.607.331-.152.785-.411 1.008-.503s.787-.324.907-.394c.121-.07.572-.205.594-.449.02-.244-.173-.271.05-.548s.356-.347.554-.702c.196-.355.255-.422.534-.568s.968-.57 1.055-.571c.086-.001.286-.01.443-.26s.351-.223.506-.264c.153-.04.381-.441.575-.502.193-.06.263-.297.287-.466s.114-.552.305-.6c.191-.048.319-.351.367-.517.047-.167.109-.615.341-.681.231-.068.151-.029.286-.196.133-.167.247-.448.455-.616.21-.168.308-.254.365-.493.059-.239.22-.97.525-1.384s.606-.632.943-.92c.336-.287.345-.632.536-.84s.059-.338.177-.47c.115-.132.131-.241.153-.312s-.081-.209.063-.362c.144-.153.267-.148.397-.278.087-.087.068-.161.068-.233A15.91 15.91 0 0 0 16.003 0c-8.837 0-16 7.163-16 16 0 3.656 1.229 7.023 3.292 9.717.12-.06.245-.117.373-.158z"/></symbol>
<symbol id="icon-phone" viewBox="0 0 32 32"><path fill="#fff" style="fill:var(--color1, #fff)" opacity=".8" d="M16 0C7.164 0 0 7.164 0 16s7.164 16 16 16 16-7.164 16-16S24.836 0 16 0zm4.303 24.245c-2.12-.131-6.289-2.565-8.232-4.752-1.937-2.188-3.861-6.617-3.735-8.741 0 0 2.309-3.055 3.369-2.993 1.068.064 4.057 3.435 2.927 4.437-1.12.996-2.183.935-2.245 1.992-.06 1.06.935 2.188 1.927 3.311 1.003 1.128 1.997 2.247 3.06 2.307 1.06.067 1.125-.991 2.245-1.993 1.125-.997 4.12 2.379 4.055 3.439-.059 1.056-3.371 2.995-3.371 2.995z"/></symbol>
</defs></svg>